<svg width="18" height="18" viewBox="0 0 18 18" fill="none" xmlns="http://www.w3.org/2000/svg">
<path d="M9.83333 4.83332H8.16666V8.16666H4.83333V9.83332H8.16666V13.1667H9.83333V9.83332H13.1667V8.16666H9.83333V4.83332ZM9 0.666656C4.4 0.666656 0.666664 4.39999 0.666664 8.99999C0.666664 13.6 4.4 17.3333 9 17.3333C13.6 17.3333 17.3333 13.6 17.3333 8.99999C17.3333 4.39999 13.6 0.666656 9 0.666656ZM9 15.6667C5.325 15.6667 2.33333 12.675 2.33333 8.99999C2.33333 5.32499 5.325 2.33332 9 2.33332C12.675 2.33332 15.6667 5.32499 15.6667 8.99999C15.6667 12.675 12.675 15.6667 9 15.6667Z" fill="#419095"/>
</svg>
